<svg width="43" height="34" viewBox="0 0 43 34" fill="none" xmlns="http://www.w3.org/2000/svg">
<rect width="43" height="34" rx="5" fill="#ADABC3"/>
<path fill-rule="evenodd" clip-rule="evenodd" d="M26.7702 22.4454L32.2757 27.8647C32.4763 28.0622 32.4763 28.3814 32.2757 28.5789L31.8532 28.9948C31.6526 29.1922 31.3283 29.1922 31.1277 28.9948L25.6222 23.5755C25.5283 23.4789 25.4728 23.3528 25.4728 23.2184V22.7899C23.8894 24.2266 21.7768 25.1088 19.4509 25.1088C14.5471 25.1088 10.5737 21.1977 10.5737 16.3708C10.5737 11.5438 14.5471 7.63266 19.4509 7.63266C24.3546 7.63266 28.328 11.5438 28.328 16.3708C28.328 18.6603 27.4317 20.7398 25.9679 22.2984H26.4075C26.544 22.2984 26.6721 22.3488 26.7702 22.4454ZM11.9395 16.3707C11.9395 20.4583 15.2983 23.7645 19.4509 23.7645C23.6035 23.7645 26.9623 20.4583 26.9623 16.3707C26.9623 12.2832 23.6035 8.97698 19.4509 8.97698C15.2983 8.97698 11.9395 12.2832 11.9395 16.3707Z" fill="#2A3036"/>
</svg>
