<svg width="220" height="28" viewBox="0 0 220 28" fill="none" xmlns="http://www.w3.org/2000/svg">
<path d="M15.3224 8.34801C15.2202 7.31676 14.7813 6.51562 14.0057 5.9446C13.2301 5.37358 12.1776 5.08807 10.848 5.08807C9.9446 5.08807 9.18182 5.21591 8.55966 5.47159C7.9375 5.71875 7.46023 6.06392 7.12784 6.5071C6.80398 6.95028 6.64205 7.45312 6.64205 8.01562C6.625 8.48438 6.72301 8.89347 6.93608 9.2429C7.15767 9.59233 7.46023 9.89489 7.84375 10.1506C8.22727 10.3977 8.67045 10.6151 9.1733 10.8026C9.67614 10.9815 10.2131 11.1349 10.7841 11.2628L13.1364 11.8253C14.2784 12.081 15.3267 12.4219 16.2812 12.848C17.2358 13.2741 18.0625 13.7983 18.7614 14.4205C19.4602 15.0426 20.0014 15.7756 20.3849 16.6193C20.777 17.4631 20.9773 18.4304 20.9858 19.5213C20.9773 21.1236 20.5682 22.5128 19.7585 23.6889C18.9574 24.8565 17.7983 25.7642 16.2812 26.4119C14.7727 27.0511 12.9531 27.3707 10.8224 27.3707C8.70881 27.3707 6.8679 27.0469 5.29972 26.3991C3.74006 25.7514 2.52131 24.7926 1.64347 23.5227C0.774148 22.2443 0.318182 20.6634 0.275568 18.7798H5.6321C5.69176 19.6577 5.94318 20.3906 6.38636 20.9787C6.83807 21.5582 7.43892 21.9972 8.18892 22.2955C8.94744 22.5852 9.80398 22.7301 10.7585 22.7301C11.696 22.7301 12.5099 22.5937 13.2003 22.321C13.8991 22.0483 14.4403 21.669 14.8239 21.1832C15.2074 20.6974 15.3991 20.1392 15.3991 19.5085C15.3991 18.9205 15.2244 18.4261 14.875 18.0256C14.5341 17.625 14.0313 17.2841 13.3665 17.0028C12.7102 16.7216 11.9048 16.4659 10.9503 16.2358L8.09943 15.5199C5.89205 14.983 4.14915 14.1435 2.87074 13.0014C1.59233 11.8594 0.957386 10.321 0.965909 8.38636C0.957386 6.80114 1.37926 5.41619 2.23153 4.23153C3.09233 3.04687 4.27273 2.12216 5.77273 1.45739C7.27273 0.792613 8.97727 0.460226 10.8864 0.460226C12.8295 0.460226 14.5256 0.792613 15.9744 1.45739C17.4318 2.12216 18.5653 3.04687 19.375 4.23153C20.1847 5.41619 20.6023 6.78835 20.6278 8.34801H15.3224ZM30.0529 15.6477V27H24.6069V0.818181H29.8995V10.8281H30.1296C30.5728 9.66903 31.2887 8.76136 32.2773 8.10511C33.266 7.44034 34.506 7.10795 35.9975 7.10795C37.3612 7.10795 38.5501 7.40625 39.5643 8.00284C40.587 8.59091 41.3796 9.43892 41.9421 10.5469C42.5131 11.6463 42.7944 12.9631 42.7859 14.4972V27H37.3398V15.4688C37.3484 14.2585 37.0415 13.3168 36.4194 12.6435C35.8058 11.9702 34.945 11.6335 33.837 11.6335C33.0955 11.6335 32.4393 11.7912 31.8683 12.1065C31.3058 12.4219 30.8626 12.8821 30.5387 13.4872C30.2234 14.0838 30.0614 14.804 30.0529 15.6477ZM52.6712 27.3707C51.4183 27.3707 50.3018 27.1534 49.3217 26.7188C48.3416 26.2756 47.5661 25.6236 46.995 24.7628C46.4325 23.8935 46.1513 22.8111 46.1513 21.5156C46.1513 20.4247 46.3516 19.5085 46.7521 18.767C47.1527 18.0256 47.6982 17.429 48.3885 16.9773C49.0788 16.5256 49.8629 16.1847 50.7408 15.9545C51.6271 15.7244 52.5561 15.5625 53.5277 15.4688C54.6697 15.3494 55.5902 15.2386 56.2891 15.1364C56.9879 15.0256 57.495 14.8636 57.8104 14.6506C58.1257 14.4375 58.2834 14.1222 58.2834 13.7045V13.6278C58.2834 12.8182 58.0277 12.1918 57.5163 11.7486C57.0135 11.3054 56.2976 11.0838 55.3686 11.0838C54.3885 11.0838 53.6087 11.3011 53.0291 11.7358C52.4496 12.1619 52.0661 12.6989 51.8786 13.3466L46.8416 12.9375C47.0973 11.7443 47.6001 10.7131 48.3501 9.84375C49.1001 8.96591 50.0675 8.29261 51.2521 7.82386C52.4453 7.34659 53.826 7.10795 55.3942 7.10795C56.4851 7.10795 57.5291 7.2358 58.5263 7.49148C59.532 7.74716 60.4226 8.14347 61.1982 8.6804C61.9822 9.21733 62.6001 9.90767 63.0518 10.7514C63.5036 11.5866 63.7294 12.5881 63.7294 13.7557V27H58.5646V24.277H58.4112C58.0959 24.8906 57.674 25.4318 57.1456 25.9006C56.6172 26.3608 55.9822 26.723 55.2408 26.9872C54.4993 27.2429 53.6428 27.3707 52.6712 27.3707ZM54.2308 23.6122C55.032 23.6122 55.7393 23.4545 56.353 23.1392C56.9666 22.8153 57.4482 22.3807 57.7976 21.8352C58.147 21.2898 58.3217 20.6719 58.3217 19.9815V17.8977C58.1513 18.0085 57.9169 18.1108 57.6186 18.2045C57.3288 18.2898 57.0007 18.3707 56.6342 18.4474C56.2678 18.5156 55.9013 18.5795 55.5348 18.6392C55.1683 18.6903 54.8359 18.7372 54.5376 18.7798C53.8984 18.8736 53.3402 19.0227 52.8629 19.2273C52.3857 19.4318 52.0149 19.7088 51.7507 20.0582C51.4865 20.3991 51.3544 20.8253 51.3544 21.3366C51.3544 22.0781 51.6229 22.6449 52.1598 23.0369C52.7053 23.4205 53.3956 23.6122 54.2308 23.6122ZM67.9545 27V7.36364H73.2344V10.7898H73.4389C73.7969 9.57102 74.3977 8.65057 75.2415 8.02841C76.0852 7.39773 77.0568 7.08239 78.1562 7.08239C78.429 7.08239 78.723 7.09943 79.0384 7.13352C79.3537 7.16761 79.6307 7.21449 79.8693 7.27415V12.1065C79.6136 12.0298 79.2599 11.9616 78.8082 11.902C78.3565 11.8423 77.9432 11.8125 77.5682 11.8125C76.767 11.8125 76.0511 11.9872 75.4205 12.3366C74.7983 12.6776 74.304 13.1548 73.9375 13.7685C73.5795 14.3821 73.4006 15.0895 73.4006 15.8906V27H67.9545ZM87.6197 21.3494L87.6325 14.8168H88.4251L94.7148 7.36364H100.966L92.516 17.233H91.2248L87.6197 21.3494ZM82.685 27V0.818181H88.131V27H82.685ZM94.9577 27L89.1793 18.4474L92.81 14.5994L101.337 27H94.9577ZM125.036 11.5057L124.217 11.7102C123.953 10.858 123.582 10.1506 123.105 9.58807C122.636 9.01705 122.061 8.59091 121.379 8.30966C120.697 8.01989 119.905 7.875 119.001 7.875C117.433 7.875 116.163 8.27557 115.192 9.0767C114.22 9.86932 113.734 10.9176 113.734 12.2216C113.734 13.2528 114.062 14.1179 114.719 14.8168C115.384 15.5156 116.385 16.0312 117.723 16.3636L120.791 17.1307C122.232 17.4886 123.322 18.0937 124.064 18.946C124.814 19.7983 125.189 20.8295 125.189 22.0398C125.189 23.1051 124.908 24.0426 124.345 24.8523C123.791 25.6619 123.024 26.2926 122.044 26.7443C121.064 27.1875 119.93 27.4091 118.643 27.4091C116.896 27.4091 115.469 26.983 114.361 26.1307C113.253 25.2784 112.533 24.0682 112.2 22.5L113.018 22.2955C113.308 23.6847 113.926 24.75 114.872 25.4915C115.827 26.2244 117.084 26.5909 118.643 26.5909C120.348 26.5909 121.729 26.1733 122.786 25.3381C123.842 24.5028 124.371 23.4034 124.371 22.0398C124.371 21.0256 124.055 20.169 123.425 19.4702C122.794 18.7713 121.848 18.2642 120.587 17.9489L117.518 17.1818C116.01 16.8068 114.864 16.1932 114.08 15.3409C113.304 14.4886 112.916 13.4489 112.916 12.2216C112.916 11.1903 113.172 10.2912 113.683 9.52415C114.203 8.74858 114.919 8.14347 115.831 7.70881C116.751 7.27415 117.808 7.05682 119.001 7.05682C120.518 7.05682 121.784 7.43182 122.798 8.18182C123.813 8.92329 124.558 10.0312 125.036 11.5057ZM137.164 7.36364V8.18182H129.392V7.36364H137.164ZM132.255 2.65909H133.074V22.858C133.074 23.625 133.244 24.2855 133.585 24.8395C133.926 25.3849 134.377 25.8068 134.94 26.1051C135.502 26.3949 136.108 26.5398 136.755 26.5398C137.002 26.5398 137.228 26.5185 137.433 26.4759C137.646 26.4332 137.863 26.3693 138.085 26.2841L138.341 27.0511C138.085 27.1449 137.833 27.2173 137.586 27.2685C137.339 27.3281 137.062 27.358 136.755 27.358C135.954 27.358 135.208 27.1747 134.518 26.8082C133.836 26.4418 133.287 25.9219 132.869 25.2486C132.46 24.5753 132.255 23.7784 132.255 22.858V2.65909ZM143.544 27V7.36364H144.362V10.483H144.464C144.924 9.46023 145.679 8.64204 146.727 8.02841C147.784 7.41477 148.99 7.10795 150.345 7.10795C150.447 7.10795 150.515 7.10795 150.549 7.10795C150.583 7.10795 150.652 7.10795 150.754 7.10795V7.92614C150.652 7.92614 150.583 7.92614 150.549 7.92614C150.515 7.92614 150.447 7.92614 150.345 7.92614C149.186 7.92614 148.154 8.17756 147.251 8.6804C146.356 9.18324 145.649 9.87784 145.129 10.7642C144.618 11.6506 144.362 12.6648 144.362 13.8068V27H143.544ZM160.16 27.4091C159.086 27.4091 158.093 27.1875 157.181 26.7443C156.278 26.3011 155.549 25.6534 154.995 24.8011C154.45 23.9489 154.177 22.9091 154.177 21.6818C154.177 21.017 154.283 20.3949 154.496 19.8153C154.71 19.2273 155.085 18.6946 155.621 18.2173C156.158 17.7401 156.908 17.331 157.871 16.9901C158.843 16.6491 160.083 16.3892 161.592 16.2102C162.495 16.108 163.347 15.9886 164.148 15.8523C164.95 15.7159 165.602 15.5114 166.104 15.2386C166.607 14.9659 166.859 14.5739 166.859 14.0625V12.8864C166.859 11.3778 166.352 10.1676 165.337 9.25568C164.323 8.33523 162.972 7.875 161.285 7.875C159.904 7.875 158.698 8.18182 157.667 8.79545C156.636 9.40057 155.915 10.2528 155.506 11.3523L154.739 11.0455C155.046 10.2273 155.519 9.51989 156.158 8.9233C156.798 8.3267 157.556 7.86648 158.434 7.54261C159.312 7.21875 160.262 7.05682 161.285 7.05682C162.282 7.05682 163.173 7.20596 163.957 7.50426C164.749 7.79403 165.423 8.20312 165.977 8.73153C166.531 9.25142 166.952 9.86506 167.242 10.5724C167.532 11.2798 167.677 12.0511 167.677 12.8864V27H166.859V23.0114H166.756C166.347 23.8977 165.815 24.6733 165.158 25.3381C164.511 25.9943 163.761 26.5057 162.908 26.8722C162.065 27.2301 161.148 27.4091 160.16 27.4091ZM160.16 26.5909C161.404 26.5909 162.533 26.2585 163.548 25.5938C164.562 24.9205 165.367 23.9872 165.964 22.794C166.56 21.5923 166.859 20.1989 166.859 18.6136V15.6477C166.62 15.8267 166.33 15.9844 165.989 16.1207C165.657 16.2571 165.278 16.3807 164.852 16.4915C164.434 16.5937 163.978 16.6832 163.484 16.7599C162.989 16.8366 162.461 16.9091 161.898 16.9773C160.143 17.1818 158.762 17.4929 157.756 17.9105C156.751 18.3281 156.039 18.8523 155.621 19.483C155.204 20.1136 154.995 20.8466 154.995 21.6818C154.995 23.1648 155.489 24.3537 156.478 25.2486C157.475 26.1435 158.702 26.5909 160.16 26.5909ZM180.864 7.36364V8.18182H173.091V7.36364H180.864ZM175.955 2.65909H176.773V22.858C176.773 23.625 176.943 24.2855 177.284 24.8395C177.625 25.3849 178.077 25.8068 178.639 26.1051C179.202 26.3949 179.807 26.5398 180.455 26.5398C180.702 26.5398 180.928 26.5185 181.132 26.4759C181.345 26.4332 181.563 26.3693 181.784 26.2841L182.04 27.0511C181.784 27.1449 181.533 27.2173 181.286 27.2685C181.038 27.3281 180.761 27.358 180.455 27.358C179.653 27.358 178.908 27.1747 178.217 26.8082C177.536 26.4418 176.986 25.9219 176.568 25.2486C176.159 24.5753 175.955 23.7784 175.955 22.858V2.65909ZM193.987 27.4091C192.444 27.4091 191.059 26.9659 189.832 26.0795C188.604 25.1847 187.633 23.9702 186.917 22.4361C186.21 20.8935 185.856 19.1591 185.856 17.233C185.856 15.2983 186.21 13.5639 186.917 12.0298C187.633 10.4957 188.604 9.28551 189.832 8.39915C191.059 7.50426 192.444 7.05682 193.987 7.05682C195.529 7.05682 196.91 7.50426 198.129 8.39915C199.356 9.29403 200.327 10.5085 201.043 12.0426C201.759 13.5767 202.117 15.3068 202.117 17.233C202.117 19.1591 201.759 20.8935 201.043 22.4361C200.336 23.9702 199.369 25.1847 198.141 26.0795C196.914 26.9659 195.529 27.4091 193.987 27.4091ZM193.987 26.5909C195.376 26.5909 196.62 26.1818 197.719 25.3636C198.827 24.5455 199.701 23.429 200.34 22.0142C200.979 20.5994 201.299 19.0057 201.299 17.233C201.299 15.4602 200.975 13.8707 200.327 12.4645C199.688 11.0497 198.819 9.93324 197.719 9.11506C196.62 8.28835 195.376 7.875 193.987 7.875C192.606 7.875 191.362 8.28835 190.254 9.11506C189.154 9.93324 188.281 11.0497 187.633 12.4645C186.994 13.8707 186.674 15.4602 186.674 17.233C186.674 19.0057 186.994 20.5994 187.633 22.0142C188.272 23.429 189.141 24.5455 190.241 25.3636C191.349 26.1818 192.597 26.5909 193.987 26.5909ZM219.641 11.5057L218.823 11.7102C218.559 10.858 218.188 10.1506 217.711 9.58807C217.242 9.01705 216.667 8.59091 215.985 8.30966C215.303 8.01989 214.51 7.875 213.607 7.875C212.039 7.875 210.769 8.27557 209.797 9.0767C208.826 9.86932 208.34 10.9176 208.34 12.2216C208.34 13.2528 208.668 14.1179 209.324 14.8168C209.989 15.5156 210.99 16.0312 212.328 16.3636L215.397 17.1307C216.837 17.4886 217.928 18.0937 218.669 18.946C219.419 19.7983 219.794 20.8295 219.794 22.0398C219.794 23.1051 219.513 24.0426 218.951 24.8523C218.397 25.6619 217.63 26.2926 216.65 26.7443C215.669 27.1875 214.536 27.4091 213.249 27.4091C211.502 27.4091 210.074 26.983 208.966 26.1307C207.858 25.2784 207.138 24.0682 206.806 22.5L207.624 22.2955C207.914 23.6847 208.532 24.75 209.478 25.4915C210.432 26.2244 211.689 26.5909 213.249 26.5909C214.953 26.5909 216.334 26.1733 217.391 25.3381C218.448 24.5028 218.976 23.4034 218.976 22.0398C218.976 21.0256 218.661 20.169 218.03 19.4702C217.4 18.7713 216.453 18.2642 215.192 17.9489L212.124 17.1818C210.615 16.8068 209.469 16.1932 208.685 15.3409C207.909 14.4886 207.522 13.4489 207.522 12.2216C207.522 11.1903 207.777 10.2912 208.289 9.52415C208.809 8.74858 209.525 8.14347 210.436 7.70881C211.357 7.27415 212.414 7.05682 213.607 7.05682C215.124 7.05682 216.39 7.43182 217.404 8.18182C218.418 8.92329 219.164 10.0312 219.641 11.5057Z" fill="white"/>
</svg>
